<svg width="1355" height="167" viewBox="0 0 1355 167" fill="none" xmlns="http://www.w3.org/2000/svg">
<path fill-rule="evenodd" clip-rule="evenodd" d="M47.7078 0H57.2311V83.5228V167H47.7078V83.5228V0Z" fill="#007BFC"/>
<path d="M41.3285 22.9198H31.8052V83.5228H41.3285V22.9198Z" fill="#007BFC"/>
<path d="M9.52331 68.577H0V83.5227H9.52331V68.577Z" fill="#007BFC"/>
<path d="M73.1792 83.5228H63.6559V144.126H73.1792V83.5228Z" fill="#007BFC"/>
<path d="M104.984 83.5228H95.4611V98.4685H104.984V83.5228Z" fill="#007BFC"/>
<path d="M89.0819 83.5228H79.5585V121.343H89.0819V83.5228Z" fill="#007BFC"/>
<path d="M25.4259 45.7029H15.9026V83.5228H25.4259V45.7029Z" fill="#007BFC"/>
<path d="M207.144 149.958C201.311 149.958 195.479 148.591 189.646 145.857C183.814 143.123 179.303 139.022 176.159 133.554H173.972V147.407H159.755V19.639H173.972V71.0832H176.159C179.303 65.6153 183.677 61.4232 189.282 58.5981C194.886 55.7274 200.947 54.3149 207.508 54.3149C214.936 54.3149 221.816 56.092 228.15 59.6917C234.483 63.2914 239.541 68.5315 243.369 75.3665C247.196 82.247 249.11 90.54 249.11 100.291V103.936C249.11 113.779 247.242 122.117 243.46 128.952C239.678 135.787 234.62 140.982 228.241 144.536C221.862 148.136 214.844 149.913 207.144 149.913V149.958ZM204.228 136.425C212.885 136.425 220.085 133.509 225.871 127.676C231.658 121.844 234.529 113.915 234.529 103.936V100.291C234.529 93.8663 233.208 88.1706 230.519 83.3405C227.831 78.465 224.231 74.683 219.674 71.949C215.118 69.215 209.969 67.848 204.273 67.848C198.577 67.848 193.611 69.2606 189.054 72.1312C184.497 75.0019 180.852 78.9206 178.118 83.8873C175.384 88.8996 174.017 94.5953 174.017 101.02V103.207C174.017 109.906 175.339 115.738 178.027 120.75C180.715 125.763 184.361 129.59 188.963 132.324C193.565 135.058 198.714 136.425 204.273 136.425H204.228Z" fill="#00051B"/>
<path d="M306.068 149.958C298.139 149.958 291.031 148.181 284.606 144.581C278.227 140.982 273.124 135.742 269.387 128.907C265.605 122.026 263.737 113.596 263.737 103.617V100.701C263.737 90.8589 265.605 82.4747 269.387 75.5031C273.169 68.577 278.227 63.2913 284.606 59.7372C290.985 56.1374 298.003 54.3604 305.703 54.3604C311.9 54.3604 317.551 55.7273 322.563 58.4613C327.621 61.1953 331.585 65.4329 334.501 71.1287H336.688V56.9121H350.905V128.815C350.905 132.461 352.545 134.283 355.826 134.283H360.383V147.406H350.723C346.941 147.406 343.66 146.176 340.88 143.761C338.101 141.346 336.688 137.427 336.688 132.096H334.501C331.585 138.065 327.53 142.531 322.381 145.493C317.232 148.454 311.764 149.958 306.068 149.958ZM307.526 136.425C316.047 136.425 323.019 133.372 328.532 127.312C334 121.251 336.734 113.186 336.734 103.207V101.02C336.734 94.5497 335.458 88.8539 332.906 83.8872C330.355 78.9205 326.892 74.9563 322.517 72.1312C318.143 69.2605 313.131 67.8479 307.572 67.8479C302.012 67.8479 297 69.215 292.626 71.9489C288.252 74.6829 284.788 78.5104 282.237 83.4315C279.685 88.3527 278.409 94.0941 278.409 100.656V103.572C278.409 113.779 281.143 121.798 286.611 127.676C292.079 133.554 299.096 136.425 307.617 136.425H307.526Z" fill="#00051B"/>
<path d="M417.021 149.958C408.637 149.958 400.891 148.181 393.828 144.581C386.766 140.982 381.07 135.742 376.787 128.815C372.458 121.889 370.316 113.505 370.316 103.617V101.43C370.316 91.6791 372.458 83.2949 376.787 76.2321C381.115 69.1694 386.811 63.747 393.828 60.0105C400.846 56.2741 408.592 54.3604 417.021 54.3604C424.677 54.3604 431.512 55.864 437.572 58.8258C443.587 61.7876 448.508 65.9342 452.335 71.1287C456.163 76.3688 458.623 82.338 459.717 89.0362L445.5 92.317C444.999 88.0793 443.632 84.0695 441.308 80.3786C438.984 76.6878 435.795 73.6804 431.739 71.3565C427.684 69.0327 422.626 67.8935 416.702 67.8935C410.779 67.8935 405.539 69.3061 400.754 72.1768C395.924 75.0474 392.097 79.0116 389.272 84.0239C386.447 89.0362 384.988 94.8687 384.988 101.43V103.617C384.988 110.452 386.401 116.285 389.272 121.251C392.142 126.218 396.015 129.955 400.845 132.552C405.721 135.149 411.143 136.471 417.067 136.471C422.991 136.471 428.048 135.286 432.104 132.916C436.159 130.547 439.349 127.494 441.582 123.803C443.814 120.112 445.272 116.148 445.865 112.047L460.082 115.328C458.851 122.026 456.391 127.995 452.609 133.19C448.827 138.43 443.951 142.531 437.936 145.493C431.922 148.454 424.95 149.958 417.021 149.958Z" fill="#00051B"/>
<path d="M477.989 147.407V19.639H492.206V94.4587H495.304L529.798 56.8666H547.341V57.9602L509.749 99.3798V102.661L551.715 146.267V147.361H534.172L495.669 107.582H492.206V147.361H477.989V147.407Z" fill="#00051B"/>
<path d="M613.776 149.958C607.944 149.958 602.111 148.591 596.279 145.857C590.446 143.123 585.935 139.022 582.791 133.554H580.604V147.407H566.387V19.639H580.604V71.0832H582.791C585.935 65.6153 590.31 61.4232 595.914 58.5981C601.519 55.7274 607.579 54.3149 614.141 54.3149C621.568 54.3149 628.448 56.092 634.782 59.6917C641.116 63.2914 646.174 68.5315 650.001 75.3665C653.829 82.247 655.742 90.54 655.742 100.291V103.936C655.742 113.779 653.874 122.117 650.092 128.952C646.31 135.787 641.253 140.982 634.873 144.536C628.494 148.136 621.477 149.913 613.776 149.913V149.958ZM610.814 136.425C619.472 136.425 626.671 133.509 632.458 127.676C638.245 121.844 641.116 113.915 641.116 103.936V100.291C641.116 93.8663 639.794 88.1706 637.106 83.3405C634.418 78.465 630.818 74.683 626.261 71.949C621.705 69.215 616.556 67.848 610.86 67.848C605.164 67.848 600.197 69.2606 595.641 72.1312C591.084 75.0019 587.439 78.9206 584.705 83.8873C581.971 88.8996 580.604 94.5953 580.604 101.02V103.207C580.604 109.906 581.925 115.738 584.614 120.75C587.302 125.763 590.947 129.59 595.55 132.324C600.152 135.058 605.301 136.425 610.86 136.425H610.814Z" fill="#00051B"/>
<path d="M713.931 149.958C705.911 149.958 698.438 148.136 691.558 144.49C684.677 140.845 679.118 135.559 674.88 128.633C670.643 121.707 668.501 113.232 668.501 103.253V101.066C668.501 91.2234 670.643 82.7936 674.88 75.7765C679.118 68.7593 684.723 63.4736 691.558 59.8283C698.438 56.183 705.865 54.3604 713.931 54.3604C721.996 54.3604 729.423 56.183 736.304 59.8283C743.184 63.4736 748.743 68.8048 752.981 75.7765C757.218 82.7936 759.36 91.1778 759.36 101.066V103.253C759.36 113.232 757.218 121.707 752.981 128.633C748.743 135.559 743.138 140.845 736.304 144.49C729.423 148.136 721.996 149.958 713.931 149.958ZM713.931 136.425C719.763 136.425 725.003 135.104 729.605 132.415C734.208 129.727 737.898 125.899 740.632 120.933C743.366 115.966 744.733 110.042 744.733 103.253V101.066C744.733 94.5042 743.366 88.7172 740.632 83.7505C737.898 78.7838 734.162 74.8651 729.514 72.0856C724.821 69.3061 719.626 67.8935 713.931 67.8935C708.235 67.8935 702.995 69.3061 698.347 72.0856C693.654 74.8651 689.963 78.7838 687.229 83.7505C684.495 88.7628 683.128 94.5042 683.128 101.066V103.253C683.128 110.088 684.495 115.966 687.229 120.933C689.963 125.945 693.699 129.772 698.347 132.415C703.04 135.104 708.235 136.425 713.931 136.425Z" fill="#00051B"/>
<path d="M813.401 149.958C805.473 149.958 798.365 148.181 791.94 144.581C785.561 140.982 780.457 135.742 776.721 128.907C772.939 122.026 771.071 113.596 771.071 103.617V100.701C771.071 90.8589 772.939 82.4747 776.721 75.5031C780.503 68.577 785.561 63.2913 791.94 59.7372C798.319 56.1374 805.336 54.3604 813.037 54.3604C819.234 54.3604 824.884 55.7273 829.896 58.4613C834.954 61.1953 838.919 65.4329 841.835 71.1287H844.022V56.9121H858.238V128.815C858.238 132.461 859.879 134.283 863.16 134.283H867.716V147.406H858.056C854.274 147.406 850.994 146.176 848.214 143.761C845.434 141.346 844.022 137.427 844.022 132.096H841.835C838.919 138.065 834.863 142.531 829.714 145.493C824.565 148.454 819.097 149.958 813.401 149.958ZM814.86 136.425C823.38 136.425 830.352 133.372 835.865 127.312C841.333 121.251 844.067 113.186 844.067 103.207V101.02C844.067 94.5497 842.792 88.8539 840.24 83.8872C837.688 78.9205 834.225 74.9563 829.851 72.1312C825.477 69.2605 820.464 67.8479 814.905 67.8479C809.346 67.8479 804.334 69.215 799.959 71.9489C795.585 74.6829 792.122 78.5104 789.57 83.4315C787.019 88.3527 785.743 94.0941 785.743 100.656V103.572C785.743 113.779 788.477 121.798 793.945 127.676C799.413 133.554 806.43 136.425 814.951 136.425H814.86Z" fill="#00051B"/>
<path d="M882.753 147.406V134.283H903.577V70.0352H884.94V56.9121H917.793V68.9415H919.981C922.305 63.9748 925.585 60.284 929.914 57.9145C934.243 55.5451 939.073 54.3604 944.404 54.3604C953.426 54.3604 960.717 57.3677 966.413 63.2913C972.063 69.2605 975.07 77.9637 975.435 89.4008L960.489 91.5879C960.489 83.2037 958.484 77.1435 954.474 73.4526C950.465 69.7618 945.543 67.8935 939.711 67.8935C932.284 67.8935 926.77 70.5819 923.216 76.0043C919.616 81.4267 917.839 88.0793 917.839 96.0078V134.329H940.85V147.452H882.799L882.753 147.406Z" fill="#00051B"/>
<path d="M1029.11 149.958C1021.09 149.958 1013.8 148.181 1007.19 144.581C1000.63 140.982 995.393 135.742 991.52 128.816C987.646 121.889 985.687 113.505 985.687 103.617V100.701C985.687 90.8589 987.647 82.4748 991.611 75.5943C995.575 68.7138 1000.82 63.4737 1007.29 59.8284C1013.8 56.1831 1020.96 54.3605 1028.75 54.3605C1034.94 54.3605 1040.78 55.7274 1046.15 58.4614C1051.58 61.1953 1055.72 65.433 1058.64 71.1288H1060.83V19.6846H1075.04V147.452H1060.83V133.6H1058.64C1055.72 139.205 1051.44 143.351 1045.79 145.994C1040.14 148.682 1034.58 150.004 1029.11 150.004V149.958ZM1030.57 136.425C1036.27 136.425 1041.41 135.058 1045.97 132.324C1050.53 129.59 1054.17 125.717 1056.82 120.75C1059.5 115.784 1060.83 109.906 1060.83 103.207V101.02C1060.83 94.5498 1059.46 88.854 1056.72 83.8873C1053.99 78.875 1050.35 74.9563 1045.79 72.1312C1041.23 69.3061 1036.13 67.848 1030.57 67.848C1025.01 67.848 1019.72 69.215 1015.17 71.949C1010.61 74.683 1006.97 78.5105 1004.32 83.4316C1001.64 88.3528 1000.31 94.0942 1000.31 100.656V103.572C1000.31 110.27 1001.64 116.057 1004.23 121.024C1006.83 125.945 1010.48 129.772 1015.08 132.415C1019.68 135.104 1024.87 136.425 1030.57 136.425Z" fill="#00051B"/>
<path d="M1120.52 149.958C1117.1 149.958 1114.14 148.682 1111.59 146.131C1109.03 143.579 1107.76 140.572 1107.76 137.2C1107.76 133.828 1109.03 130.684 1111.59 128.178C1114.14 125.671 1117.15 124.441 1120.52 124.441C1123.89 124.441 1127.03 125.671 1129.54 128.178C1132.05 130.684 1133.28 133.691 1133.28 137.2C1133.28 140.708 1132.05 143.579 1129.54 146.131C1127.03 148.682 1124.03 149.958 1120.52 149.958Z" fill="#00051B"/>
<path d="M1168.91 147.407V134.283H1200.67V70.0352H1172.19V56.9121H1214.88V134.283H1244.46V147.407H1168.91ZM1207.59 42.6499C1204.18 42.6499 1201.22 41.3741 1198.66 38.8224C1196.11 36.2707 1194.84 33.2633 1194.84 29.8914C1194.84 26.5195 1196.11 23.3754 1198.66 20.8693C1201.22 18.3632 1204.22 17.1329 1207.59 17.1329C1210.97 17.1329 1214.11 18.3632 1216.62 20.8693C1219.12 23.3754 1220.35 26.3828 1220.35 29.8914C1220.35 33.4 1219.12 36.2707 1216.62 38.8224C1214.11 41.3741 1211.1 42.6499 1207.59 42.6499Z" fill="#00051B"/>
<path d="M1308.93 149.958C1300.91 149.958 1293.44 148.136 1286.56 144.49C1279.68 140.845 1274.12 135.559 1269.88 128.633C1265.65 121.707 1263.5 113.232 1263.5 103.253V101.066C1263.5 91.2234 1265.65 82.7936 1269.88 75.7765C1274.12 68.7593 1279.73 63.4736 1286.56 59.8283C1293.44 56.183 1300.87 54.3604 1308.93 54.3604C1317 54.3604 1324.43 56.183 1331.31 59.8283C1338.19 63.4736 1343.75 68.8048 1347.98 75.7765C1352.22 82.7936 1354.36 91.1778 1354.36 101.066V103.253C1354.36 113.232 1352.22 121.707 1347.98 128.633C1343.75 135.559 1338.14 140.845 1331.31 144.49C1324.43 148.136 1317 149.958 1308.93 149.958ZM1308.93 136.425C1314.77 136.425 1320.01 135.104 1324.61 132.415C1329.21 129.727 1332.9 125.899 1335.64 120.933C1338.37 115.966 1339.74 110.042 1339.74 103.253V101.066C1339.74 94.5042 1338.37 88.7172 1335.64 83.7505C1332.9 78.7838 1329.16 74.8651 1324.52 72.0856C1319.82 69.3061 1314.63 67.8935 1308.93 67.8935C1303.24 67.8935 1298 69.3061 1293.35 72.0856C1288.66 74.8651 1284.97 78.7838 1282.23 83.7505C1279.5 88.7628 1278.13 94.5042 1278.13 101.066V103.253C1278.13 110.088 1279.5 115.966 1282.23 120.933C1284.97 125.945 1288.7 129.772 1293.35 132.415C1298.04 135.104 1303.24 136.425 1308.93 136.425Z" fill="#00051B"/>
</svg>
