<svg width="3144" height="180" viewBox="0 0 3144 180" fill="none" xmlns="http://www.w3.org/2000/svg">
<path d="M0 13L137 0L273 1L410 48L547 64L683 60L820 65L957 1L1094 49L1230 48L1367 66L1504 34L1640 16L1777 7L1914 33L2050 55L2187 54L2324 4L2461 70L2597 44H2734L2871 12L3007 36L3144 51V180H3007H2871H2734H2597H2461H2324H2187H2050H1914H1777H1640H1504H1367H1230H1094H957H820H683H547H410H273H137H0V13Z" fill="#DBA897"/>
<path d="M0 72L137 57L273 66L410 20L547 43L683 61L820 22L957 18L1094 79L1230 75L1367 68L1504 71L1640 16L1777 62L1914 38L2050 13L2187 57L2324 45L2461 55L2597 32L2734 53L2871 68L3007 81L3144 25V180H3007H2871H2734H2597H2461H2324H2187H2050H1914H1777H1640H1504H1367H1230H1094H957H820H683H547H410H273H137H0V72Z" fill="#CB978D"/>
<path d="M0 64L137 39L273 54L410 52L547 82L683 28L820 87L957 36L1094 87L1230 56L1367 64L1504 87L1640 49L1777 79L1914 81L2050 89L2187 56L2324 85L2461 79L2597 72L2734 89L2871 45L3007 61L3144 57V180H3007H2871H2734H2597H2461H2324H2187H2050H1914H1777H1640H1504H1367H1230H1094H957H820H683H547H410H273H137H0V64Z" fill="#BA8683"/>
<path d="M0 52L137 56L273 59L410 66L547 68L683 84L820 88L957 91L1094 75L1230 82L1367 76L1504 87L1640 66L1777 69L1914 51L2050 62L2187 69L2324 65L2461 47L2597 56L2734 97L2871 51L3007 63L3144 82V180H3007H2871H2734H2597H2461H2324H2187H2050H1914H1777H1640H1504H1367H1230H1094H957H820H683H547H410H273H137H0V52Z" fill="#A97679"/>
<path d="M0 78L137 60H273L410 56L547 83L683 59L820 103L957 66L1094 93L1230 77L1367 108L1504 105L1640 93L1777 82L1914 90L2050 88L2187 61L2324 85L2461 91L2597 77L2734 57L2871 58L3007 79L3144 76V180H3007H2871H2734H2597H2461H2324H2187H2050H1914H1777H1640H1504H1367H1230H1094H957H820H683H547H410H273H137H0V78Z" fill="#976770"/>
<path d="M0 82L137 108L273 100L410 82L547 115H683L820 101L957 77L1094 80L1230 101L1367 91L1504 84L1640 107L1777 108L1914 70L2050 104L2187 75L2324 96L2461 80L2597 82L2734 113L2871 107L3007 112L3144 88V180H3007H2871H2734H2597H2461H2324H2187H2050H1914H1777H1640H1504H1367H1230H1094H957H820H683H547H410H273H137H0V82Z" fill="#855966"/>
<path d="M0 87L137 109L273 106L410 93L547 104L683 88L820 120L957 107L1094 122L1230 91L1367 121L1504 92L1640 129L1777 93L1914 95L2050 115L2187 102L2324 99L2461 111L2597 99L2734 100L2871 102L3007 103L3144 115V180H3007H2871H2734H2597H2461H2324H2187H2050H1914H1777H1640H1504H1367H1230H1094H957H820H683H547H410H273H137H0V87Z" fill="#734B5C"/>
<path d="M0 129L137 99L273 98L410 121L547 107H683L820 105H957L1094 122L1230 101L1367 104L1504 139L1640 128L1777 132H1914L2050 95L2187 109H2324L2461 115L2597 97L2734 102L2871 133L3007 119L3144 98V180H3007H2871H2734H2597H2461H2324H2187H2050H1914H1777H1640H1504H1367H1230H1094H957H820H683H547H410H273H137H0V129Z" fill="#603E52"/>
<path d="M0 113L137 136L273 120L410 127L547 129L683 122L820 121L957 140L1094 110L1230 144L1367 125L1504 123L1640 138L1777 126L1914 139L2050 133L2187 147L2324 122L2461 118L2597 129L2734 137L2871 132L3007 137L3144 136V180H3007H2871H2734H2597H2461H2324H2187H2050H1914H1777H1640H1504H1367H1230H1094H957H820H683H547H410H273H137H0V113Z" fill="#4E3247"/>
<path d="M0 141L137 158L273 148L410 146L547 158L683 153L820 144L957 153L1094 137L1230 127L1367 149L1504 138L1640 153L1777 133L1914 146L2050 129L2187 143L2324 126L2461 123L2597 149L2734 147L2871 132L3007 133L3144 123V180H3007H2871H2734H2597H2461H2324H2187H2050H1914H1777H1640H1504H1367H1230H1094H957H820H683H547H410H273H137H0V141Z" fill="#3C273C"/>
<path d="M0 163L137 156L273 147L410 155L547 163L683 145L820 158H957L1094 163L1230 164L1367 144L1504 166L1640 143L1777 163L1914 151L2050 158L2187 142L2324 141L2461 137L2597 163L2734 152L2871 144L3007 158L3144 147V180H3007H2871H2734H2597H2461H2324H2187H2050H1914H1777H1640H1504H1367H1230H1094H957H820H683H547H410H273H137H0V163Z" fill="#2B1C31"/>
<path d="M0 173L137 174L273 162L410 169L547 165L683 153L820 165L957 172L1094 168L1230 163L1367 151L1504 168L1640 171L1777 159L1914 163L2050 160L2187 167L2324 177L2461 157L2597 170L2734 173L2871 163L3007 161L3144 167V180H3007H2871H2734H2597H2461H2324H2187H2050H1914H1777H1640H1504H1367H1230H1094H957H820H683H547H410H273H137H0V173Z" fill="#1A1126"/>
</svg>
