<svg width="17" height="17" viewBox="0 0 17 17" fill="none" xmlns="http://www.w3.org/2000/svg">
<path d="M3.30194 2.38498C2.93576 0.479509 5.22476 -0.778714 6.63725 0.551622L7.96294 1.80021C8.59445 2.39499 9.53738 2.51484 10.2976 2.09696L11.9045 1.21368C13.6003 0.281535 15.4994 2.06106 14.6795 3.81384L13.8924 5.49615C13.5264 6.27848 13.704 7.20738 14.3328 7.79956L15.6791 9.06764C17.0902 10.3966 15.975 12.7547 14.0526 12.5072L12.2561 12.2759C11.3933 12.1649 10.5578 12.6242 10.1892 13.4121L9.42164 15.0527C8.60027 16.8084 6.01182 16.4862 5.64601 14.5827L5.29697 12.7664C5.13397 11.9182 4.44489 11.2704 3.58825 11.1602L1.74615 10.9231C-0.173115 10.676 -0.657714 8.1189 1.03808 7.18675L2.64497 6.30347C3.40519 5.8856 3.80934 5.02528 3.64562 4.17337L3.30194 2.38498Z" fill="white"/>
</svg>
