<svg width="52" height="51" viewBox="0 0 52 51" fill="none" xmlns="http://www.w3.org/2000/svg">
<path d="M12.7137 2.37799C12.3558 0.478463 14.6331 -0.773372 16.045 0.546794L27.258 11.0312C27.8897 11.6219 28.8295 11.7396 29.5874 11.323L43.1033 3.89356C44.8043 2.95854 46.7061 4.75097 45.8733 6.50431L39.2867 20.3713C38.9131 21.1578 39.0913 22.0956 39.7273 22.6903L50.9082 33.1447C52.3224 34.467 51.2202 36.8266 49.2985 36.5906L33.9905 34.7112C33.1357 34.6062 32.3097 35.0603 31.9402 35.8382L25.3231 49.7695C24.4924 51.5183 21.9096 51.1843 21.5511 49.2817L18.7169 34.2393C18.5557 33.3837 17.8594 32.7307 16.9952 32.6246L1.75783 30.7538C-0.16877 30.5173 -0.66288 27.9511 1.03814 27.016L14.554 19.5866C15.3119 19.17 15.7162 18.3135 15.556 17.4636L12.7137 2.37799Z" fill="white"/>
</svg>
