<svg width="28" height="28" viewBox="0 0 28 28" fill="none" xmlns="http://www.w3.org/2000/svg">
<path d="M5.90846 2.44024C5.47701 0.489709 7.85694 -0.818497 9.27249 0.591096L13.5701 4.87065C14.1994 5.49728 15.1665 5.63391 15.9448 5.20613L21.1361 2.35253C22.7897 1.44361 24.6665 3.11983 23.9495 4.86518L21.442 10.9691C21.1348 11.7168 21.308 12.5759 21.8807 13.1463L26.6114 17.857C27.9993 19.2392 26.7789 21.586 24.8503 21.2434L19.3274 20.2623C18.401 20.0977 17.4851 20.6011 17.1276 21.4714L14.9961 26.6601C14.2517 28.4719 11.6163 28.2446 11.1933 26.3321L9.7514 19.8136C9.57682 19.0243 8.94429 18.4177 8.14842 18.2764L1.65122 17.1222C-0.206579 16.7921 -0.615917 14.3092 1.03762 13.4003L6.22898 10.5467C7.00722 10.1189 7.41016 9.22921 7.21836 8.36211L5.90846 2.44024Z" fill="white"/>
</svg>
