<svg width="623" height="623" viewBox="0 0 623 623" fill="none" xmlns="http://www.w3.org/2000/svg">
<path d="M489.5 0C563.23 0 623 59.77 623 133.5V489.5C623 563.23 563.23 623 489.5 623H133.5C59.77 623 0 563.23 0 489.5V133.5C0 59.77 59.77 0 133.5 0H489.5ZM302.6 89C227.833 89 190.449 89.0003 161.893 103.551C136.773 116.35 116.35 136.773 103.551 161.893C89.0003 190.449 89 227.833 89 302.6V320.4C89 395.167 89.0003 432.551 103.551 461.106C116.35 486.227 136.773 506.65 161.893 519.448C190.449 534 227.833 534 302.6 534H320.4C395.167 534 432.551 534 461.106 519.448C486.227 506.65 506.65 486.227 519.448 461.106C534 432.551 534 395.167 534 320.4V302.6C534 227.833 534 190.449 519.448 161.893C506.65 136.773 486.227 116.35 461.106 103.551C432.551 89.0003 395.167 89 320.4 89H302.6ZM320.4 133.5C358.519 133.5 384.429 133.535 404.458 135.171C423.969 136.765 433.946 139.654 440.906 143.2C457.651 151.733 471.266 165.348 479.799 182.094C483.345 189.054 486.236 199.031 487.829 218.542C489.464 238.571 489.5 264.481 489.5 302.6V320.4C489.5 358.519 489.464 384.429 487.829 404.458C486.236 423.969 483.345 433.946 479.799 440.906C471.266 457.651 457.651 471.266 440.906 479.799C433.946 483.345 423.969 486.236 404.458 487.829C384.429 489.464 358.519 489.5 320.4 489.5H302.6C264.481 489.5 238.571 489.464 218.542 487.829C199.031 486.236 189.054 483.345 182.094 479.799C165.348 471.266 151.733 457.651 143.2 440.906C139.654 433.946 136.765 423.969 135.171 404.458C133.535 384.429 133.5 358.519 133.5 320.4V302.6C133.5 264.481 133.535 238.571 135.171 218.542C136.765 199.031 139.654 189.054 143.2 182.094C151.733 165.348 165.348 151.733 182.094 143.2C189.054 139.654 199.031 136.765 218.542 135.171C238.571 133.535 264.481 133.5 302.6 133.5H320.4ZM311.5 200.25C250.059 200.25 200.25 250.059 200.25 311.5C200.25 372.941 250.059 422.75 311.5 422.75C372.941 422.75 422.75 372.941 422.75 311.5C422.75 250.059 372.941 200.25 311.5 200.25ZM311.5 244.75C348.366 244.75 378.25 274.634 378.25 311.5C378.25 348.366 348.366 378.25 311.5 378.25C274.634 378.25 244.75 348.366 244.75 311.5C244.75 274.634 274.634 244.75 311.5 244.75ZM433.875 155.75C415.443 155.75 400.5 170.692 400.5 189.125C400.5 207.557 415.443 222.5 433.875 222.5C452.307 222.5 467.25 207.557 467.25 189.125C467.25 170.692 452.307 155.75 433.875 155.75Z" fill="black"/>
</svg>
